<svg width="766" height="382" viewBox="0 0 766 382" fill="none" xmlns="http://www.w3.org/2000/svg">
<path d="M637.53 346.285C626.272 344.141 614.848 342.41 603.261 341.244C550.693 335.952 429.513 334.113 370.781 335.741C294.536 337.855 52.9152 373.29 34.6599 340.879C16.4036 308.468 21.7727 71.0252 57.211 66.0936C92.6492 61.1612 218.292 80.5706 292.388 81.9802C366.485 83.3898 543.674 64.6847 616.697 62.5708C689.72 60.4568 696.163 68.2075 713.345 109.778C730.527 151.348 748.783 288.036 745.561 319.742C742.823 346.692 664.824 351.483 637.53 346.285Z" fill="#49B02D" fill-opacity="0.5"/>
<path opacity="0.7" d="M637.53 346.285C626.272 344.141 614.848 342.41 603.261 341.244C550.693 335.952 429.513 334.113 370.781 335.741C294.536 337.855 52.9152 373.29 34.6599 340.879C16.4036 308.468 21.7727 71.0252 57.211 66.0936C92.6492 61.1612 218.292 80.5706 292.388 81.9802C366.485 83.3898 543.674 64.6847 616.697 62.5708C689.72 60.4568 696.163 68.2075 713.345 109.778C730.527 151.348 748.783 288.036 745.561 319.742C742.823 346.692 664.824 351.483 637.53 346.285Z" fill="white"/>
<path d="M170.853 75.9771C170.853 75.9771 167.139 64.3108 147.088 63.1999C127.036 62.0891 126.294 72.0883 119.61 75.4216C112.927 78.755 108.471 70.422 98.816 73.7554C89.1613 77.0887 91.3899 81.5329 86.1913 82.6437C80.9927 83.7546 82.4777 80.9774 75.0516 82.0883C67.6255 83.1992 68.368 85.4216 64.6544 87.0879C60.9409 88.7542 61.6834 87.0879 57.2283 87.6433C52.7722 88.1988 48.3162 90.9767 48.3162 90.9767H203.529C203.529 90.9767 198.89 77.0291 192.39 75.4216C178.393 71.9615 173.081 80.9767 170.853 75.9771Z" stroke="#263238" stroke-miterlimit="10"/>
<path d="M519.593 138.225C519.593 138.225 516.956 129.941 502.718 129.152C488.479 128.362 487.951 135.464 483.205 137.831C478.459 140.198 475.295 134.28 468.439 136.647C461.584 139.014 463.166 142.17 459.473 142.959C455.781 143.749 456.836 141.776 451.563 142.565C446.29 143.354 446.817 144.932 444.18 146.116C441.543 147.299 442.071 146.116 438.906 146.51C435.742 146.904 432.578 148.877 432.578 148.877H542.798C542.798 148.877 539.504 138.972 534.888 137.831C524.948 135.374 521.175 141.776 519.593 138.225Z" stroke="#263238" stroke-miterlimit="10"/>
<path d="M460.521 73.3912C460.521 73.3912 454.687 55.0613 423.182 53.3163C391.678 51.5706 390.511 67.2814 380.009 72.5187C369.508 77.7559 362.507 64.6632 347.338 69.9004C332.169 75.1377 335.669 82.1199 327.502 83.8656C319.334 85.6113 321.668 81.2474 309.999 82.9923C298.331 84.7381 299.498 88.2296 293.664 90.8478C287.83 93.466 288.996 90.8478 281.995 91.721C274.994 92.5935 267.994 96.9583 267.994 96.9583H511.861C511.861 96.9583 504.572 75.0437 494.358 72.5187C472.369 67.0813 464.022 81.2466 460.521 73.3912Z" stroke="#263238" stroke-miterlimit="10"/>
<path d="M614.794 69.1505C626.445 67.1124 633.681 58.3951 630.956 49.6797C628.232 40.9644 616.578 35.5514 604.927 37.5895C593.276 39.6276 586.04 48.345 588.765 57.0603C591.489 65.7756 603.143 71.1886 614.794 69.1505Z" fill="#49B02D" fill-opacity="0.5" stroke="#263238" stroke-miterlimit="10"/>
<path d="M609.881 25.1807V32.9597" stroke="#263238" stroke-miterlimit="10"/>
<path d="M609.881 73.7993V81.5784" stroke="#263238" stroke-miterlimit="10"/>
<path d="M647.578 53.3789H637.179" stroke="#263238" stroke-miterlimit="10"/>
<path d="M582.583 53.3789H572.184" stroke="#263238" stroke-miterlimit="10"/>
<path d="M636.537 33.4395L629.184 38.9403" stroke="#263238" stroke-miterlimit="10"/>
<path d="M590.579 67.8188L583.225 73.3189" stroke="#263238" stroke-miterlimit="10"/>
<path d="M583.225 33.4395L590.579 38.9403" stroke="#263238" stroke-miterlimit="10"/>
<path d="M629.184 67.8188L636.537 73.3189" stroke="#263238" stroke-miterlimit="10"/>
<path d="M741.331 206.491C741.331 235.938 718.044 259.808 689.319 259.808C660.594 259.808 637.308 235.938 637.308 206.491C637.308 177.045 660.594 75.8413 689.319 75.8413C718.044 75.8413 741.331 177.045 741.331 206.491Z" fill="#49B02D"/>
<path d="M718.483 221.897L702.733 226.254L705.894 219.162L698.365 227.463L690.847 229.543L690.31 206.255L717.67 179.064L703.007 190.033L705.488 182.406L698.473 193.424L690.158 199.644L689.319 163.261L686.339 216.325L660.411 195.772L674.653 210.254L661.223 209.138L677.812 213.467L686.031 221.823L684.594 247.407L675.031 242.554L684.295 252.703L679.904 328.072H693.183L690.933 233.258L718.483 221.897Z" fill="#878787"/>
<path d="M717.933 163.376C717.933 163.376 718.414 166.951 715.802 169.575C713.191 172.199 708.474 172.879 708.474 172.879C708.474 172.879 707.993 169.305 710.605 166.681C713.217 164.056 717.933 163.376 717.933 163.376Z" fill="white"/>
<path d="M733.609 179.852C733.609 179.852 734.09 183.427 731.479 186.05C728.867 188.675 724.151 189.355 724.151 189.355C724.151 189.355 723.67 185.78 726.281 183.156C728.893 180.532 733.609 179.852 733.609 179.852Z" fill="white"/>
<path d="M733.602 211.931C733.602 211.931 732.447 215.417 728.807 217.23C725.167 219.043 720.42 218.496 720.42 218.496C720.42 218.496 721.576 215.009 725.216 213.196C728.856 211.383 733.602 211.931 733.602 211.931Z" fill="white"/>
<path d="M647.509 211.931C647.509 211.931 648.664 215.417 652.305 217.23C655.945 219.043 660.691 218.496 660.691 218.496C660.691 218.496 659.536 215.009 655.895 213.196C652.256 211.383 647.509 211.931 647.509 211.931Z" fill="white"/>
<path d="M715.497 198.615C715.497 198.615 715.978 202.189 713.366 204.813C710.754 207.437 706.038 208.117 706.038 208.117C706.038 208.117 705.557 204.543 708.168 201.919C710.781 199.295 715.497 198.615 715.497 198.615Z" fill="white"/>
<path d="M711.435 145.454C711.435 145.454 711.916 149.028 709.304 151.652C706.692 154.277 701.977 154.957 701.977 154.957C701.977 154.957 701.496 151.383 704.107 148.758C706.72 146.134 711.435 145.454 711.435 145.454Z" fill="white"/>
<path d="M702.095 159.124C702.095 159.124 702.576 162.698 699.964 165.322C697.353 167.946 692.636 168.626 692.636 168.626C692.636 168.626 692.155 165.051 694.767 162.428C697.38 159.804 702.095 159.124 702.095 159.124Z" fill="white"/>
<path d="M724.269 149.171C724.269 149.171 724.75 152.746 722.139 155.37C719.527 157.994 714.811 158.674 714.811 158.674C714.811 158.674 714.33 155.099 716.941 152.475C719.553 149.851 724.269 149.171 724.269 149.171Z" fill="white"/>
<path d="M652.215 149.171C652.215 149.171 651.734 152.746 654.346 155.37C656.957 157.994 661.673 158.674 661.673 158.674C661.673 158.674 662.154 155.099 659.542 152.475C656.931 149.851 652.215 149.171 652.215 149.171Z" fill="white"/>
<path d="M713.466 128.746C713.466 128.746 713.947 132.321 711.335 134.944C708.724 137.569 704.007 138.249 704.007 138.249C704.007 138.249 703.526 134.675 706.139 132.05C708.75 129.426 713.466 128.746 713.466 128.746Z" fill="white"/>
<path d="M708.876 110.998C708.876 110.998 710.542 114.367 708.895 117.398C707.249 120.428 702.912 121.972 702.912 121.972C702.912 121.972 701.246 118.603 702.893 115.572C704.54 112.542 708.876 110.998 708.876 110.998Z" fill="white"/>
<path d="M675.986 106.36C675.986 106.36 680.24 108.027 681.731 111.103C683.222 114.179 681.386 117.497 681.386 117.497C681.386 117.497 677.131 115.83 675.639 112.755C674.148 109.679 675.986 106.36 675.986 106.36Z" fill="white"/>
<path d="M691.323 127.583C691.323 127.583 694.353 130.37 694.103 133.636C693.852 136.902 690.414 139.411 690.414 139.411C690.414 139.411 687.384 136.624 687.635 133.358C687.885 130.091 691.323 127.583 691.323 127.583Z" fill="white"/>
<path d="M690.511 95.9902C690.511 95.9902 693.541 98.7773 693.29 102.043C693.039 105.31 689.602 107.818 689.602 107.818C689.602 107.818 686.572 105.031 686.822 101.765C687.073 98.4985 690.511 95.9902 690.511 95.9902Z" fill="white"/>
<path d="M656.088 163.376C656.088 163.376 655.607 166.951 658.219 169.575C660.83 172.199 665.547 172.879 665.547 172.879C665.547 172.879 666.028 169.305 663.415 166.681C660.804 164.056 656.088 163.376 656.088 163.376Z" fill="white"/>
<path d="M647.153 182.818C647.153 182.818 646.672 186.393 649.285 189.016C651.897 191.641 656.613 192.321 656.613 192.321C656.613 192.321 657.094 188.746 654.483 186.122C651.869 183.498 647.153 182.818 647.153 182.818Z" fill="white"/>
<path d="M670.869 189.876C670.869 189.876 670.388 193.451 672.999 196.075C675.611 198.699 680.327 199.379 680.327 199.379C680.327 199.379 680.808 195.804 678.196 193.181C675.585 190.556 670.869 189.876 670.869 189.876Z" fill="white"/>
<path d="M677.353 162.938C677.353 162.938 675.524 166.26 677.022 169.333C678.521 172.407 682.779 174.069 682.779 174.069C682.779 174.069 684.608 170.747 683.109 167.673C681.611 164.6 677.353 162.938 677.353 162.938Z" fill="white"/>
<path d="M660.56 234.622C660.56 234.622 665.361 234.688 668.643 232.526C671.925 230.363 672.445 226.792 672.445 226.792C672.445 226.792 667.643 226.726 664.361 228.889C661.079 231.05 660.56 234.622 660.56 234.622Z" fill="white"/>
<path d="M706.637 230.693C706.637 230.693 707.941 234.15 711.658 235.875C715.373 237.6 720.094 236.939 720.094 236.939C720.094 236.939 718.79 233.482 715.073 231.757C711.358 230.032 706.637 230.693 706.637 230.693Z" fill="white"/>
<path d="M665.916 145.454C665.916 145.454 665.435 149.028 668.047 151.652C670.66 154.277 675.375 154.957 675.375 154.957C675.375 154.957 675.856 151.383 673.244 148.758C670.632 146.134 665.916 145.454 665.916 145.454Z" fill="white"/>
<path d="M665.834 129.657C665.834 129.657 665.353 133.231 667.965 135.855C670.577 138.479 675.293 139.159 675.293 139.159C675.293 139.159 675.774 135.585 673.163 132.961C670.55 130.337 665.834 129.657 665.834 129.657Z" fill="white"/>
<path d="M388.623 230.309C388.623 253.987 369.898 273.181 346.801 273.181C323.703 273.181 304.978 253.986 304.978 230.309C304.978 206.632 323.702 125.254 346.801 125.254C369.899 125.254 388.623 206.632 388.623 230.309Z" fill="#49B02D"/>
<path d="M370.252 242.697L357.587 246.2L360.129 240.499L354.075 247.173L348.03 248.845L347.597 230.12L369.599 208.255L357.808 217.074L359.802 210.942L354.162 219.802L347.476 224.804L346.801 195.548L344.405 238.216L323.555 221.69L335.008 233.335L324.209 232.438L337.549 235.918L344.157 242.638L343 263.21L335.311 259.307L342.761 267.468L339.23 328.072H349.908L348.098 251.832L370.252 242.697Z" fill="#878787"/>
<path d="M369.809 195.64C369.809 195.64 370.196 198.514 368.097 200.624C365.996 202.735 362.205 203.281 362.205 203.281C362.205 203.281 361.817 200.407 363.918 198.297C366.017 196.187 369.809 195.64 369.809 195.64Z" fill="white"/>
<path d="M382.415 208.889C382.415 208.889 382.802 211.763 380.701 213.873C378.601 215.983 374.809 216.53 374.809 216.53C374.809 216.53 374.422 213.656 376.523 211.546C378.622 209.436 382.415 208.889 382.415 208.889Z" fill="white"/>
<path d="M382.41 234.683C382.41 234.683 381.48 237.487 378.553 238.945C375.626 240.403 371.809 239.963 371.809 239.963C371.809 239.963 372.738 237.159 375.666 235.701C378.593 234.243 382.41 234.683 382.41 234.683Z" fill="white"/>
<path d="M313.182 234.683C313.182 234.683 314.111 237.487 317.038 238.945C319.965 240.403 323.782 239.963 323.782 239.963C323.782 239.963 322.853 237.159 319.925 235.701C316.998 234.243 313.182 234.683 313.182 234.683Z" fill="white"/>
<path d="M367.85 223.976C367.85 223.976 368.238 226.85 366.137 228.96C364.037 231.07 360.245 231.617 360.245 231.617C360.245 231.617 359.858 228.743 361.958 226.633C364.058 224.523 367.85 223.976 367.85 223.976Z" fill="white"/>
<path d="M364.584 181.229C364.584 181.229 364.971 184.103 362.87 186.213C360.77 188.324 356.978 188.87 356.978 188.87C356.978 188.87 356.591 185.996 358.691 183.885C360.793 181.775 364.584 181.229 364.584 181.229Z" fill="white"/>
<path d="M357.074 192.221C357.074 192.221 357.461 195.095 355.361 197.205C353.26 199.315 349.469 199.861 349.469 199.861C349.469 199.861 349.081 196.987 351.182 194.877C353.282 192.768 357.074 192.221 357.074 192.221Z" fill="white"/>
<path d="M374.904 184.218C374.904 184.218 375.291 187.092 373.19 189.202C371.09 191.312 367.298 191.859 367.298 191.859C367.298 191.859 366.911 188.984 369.012 186.874C371.111 184.764 374.904 184.218 374.904 184.218Z" fill="white"/>
<path d="M316.966 184.218C316.966 184.218 316.578 187.092 318.679 189.202C320.779 191.312 324.571 191.859 324.571 191.859C324.571 191.859 324.959 188.984 322.858 186.874C320.757 184.764 316.966 184.218 316.966 184.218Z" fill="white"/>
<path d="M366.217 167.794C366.217 167.794 366.605 170.668 364.504 172.778C362.404 174.888 358.612 175.435 358.612 175.435C358.612 175.435 358.224 172.561 360.325 170.451C362.425 168.341 366.217 167.794 366.217 167.794Z" fill="white"/>
<path d="M362.526 153.523C362.526 153.523 363.866 156.233 362.541 158.67C361.217 161.107 357.73 162.348 357.73 162.348C357.73 162.348 356.39 159.639 357.715 157.202C359.039 154.765 362.526 153.523 362.526 153.523Z" fill="white"/>
<path d="M336.079 149.793C336.079 149.793 339.499 151.134 340.698 153.607C341.897 156.08 340.42 158.748 340.42 158.748C340.42 158.748 336.999 157.408 335.8 154.935C334.601 152.462 336.079 149.793 336.079 149.793Z" fill="white"/>
<path d="M348.412 166.859C348.412 166.859 350.849 169.1 350.648 171.726C350.446 174.353 347.682 176.37 347.682 176.37C347.682 176.37 345.245 174.129 345.447 171.502C345.648 168.876 348.412 166.859 348.412 166.859Z" fill="white"/>
<path d="M347.759 141.455C347.759 141.455 350.196 143.696 349.993 146.323C349.791 148.949 347.028 150.966 347.028 150.966C347.028 150.966 344.591 148.725 344.792 146.099C344.995 143.472 347.759 141.455 347.759 141.455Z" fill="white"/>
<path d="M320.08 195.64C320.08 195.64 319.693 198.514 321.793 200.624C323.893 202.735 327.686 203.281 327.686 203.281C327.686 203.281 328.073 200.407 325.972 198.297C323.872 196.187 320.08 195.64 320.08 195.64Z" fill="white"/>
<path d="M312.896 211.274C312.896 211.274 312.51 214.148 314.609 216.258C316.709 218.368 320.501 218.915 320.501 218.915C320.501 218.915 320.889 216.041 318.788 213.93C316.688 211.82 312.896 211.274 312.896 211.274Z" fill="white"/>
<path d="M331.965 216.95C331.965 216.95 331.578 219.824 333.679 221.934C335.779 224.044 339.571 224.59 339.571 224.59C339.571 224.59 339.958 221.716 337.857 219.606C335.757 217.496 331.965 216.95 331.965 216.95Z" fill="white"/>
<path d="M337.179 195.288C337.179 195.288 335.708 197.959 336.912 200.431C338.116 202.902 341.541 204.238 341.541 204.238C341.541 204.238 343.012 201.567 341.808 199.096C340.602 196.624 337.179 195.288 337.179 195.288Z" fill="white"/>
<path d="M323.676 252.929C323.676 252.929 327.536 252.982 330.176 251.243C332.815 249.504 333.232 246.632 333.232 246.632C333.232 246.632 329.371 246.579 326.733 248.318C324.093 250.057 323.676 252.929 323.676 252.929Z" fill="white"/>
<path d="M360.726 249.769C360.726 249.769 361.774 252.549 364.763 253.936C367.751 255.322 371.547 254.791 371.547 254.791C371.547 254.791 370.498 252.011 367.509 250.624C364.522 249.238 360.726 249.769 360.726 249.769Z" fill="white"/>
<path d="M327.983 181.229C327.983 181.229 327.596 184.103 329.696 186.213C331.797 188.324 335.589 188.87 335.589 188.87C335.589 188.87 335.975 185.996 333.875 183.885C331.775 181.775 327.983 181.229 327.983 181.229Z" fill="white"/>
<path d="M327.916 168.527C327.916 168.527 327.529 171.401 329.63 173.511C331.73 175.621 335.522 176.168 335.522 176.168C335.522 176.168 335.908 173.294 333.808 171.184C331.709 169.074 327.916 168.527 327.916 168.527Z" fill="white"/>
<path d="M291.573 250.066C291.573 268.959 276.632 284.274 258.202 284.274C239.772 284.274 224.831 268.959 224.831 250.066C224.831 231.173 239.772 166.24 258.202 166.24C276.632 166.24 291.573 231.173 291.573 250.066Z" fill="#49B02D"/>
<path d="M276.913 259.95L266.809 262.745L268.836 258.196L264.005 263.521L259.183 264.856L258.838 249.914L276.392 232.468L266.985 239.505L268.576 234.612L264.075 241.682L258.74 245.672L258.202 222.329L256.29 256.374L239.655 243.188L248.793 252.48L240.176 251.764L250.819 254.541L256.092 259.903L255.17 276.318L249.035 273.203L254.979 279.715L252.161 328.072H260.681L259.237 267.239L276.913 259.95Z" fill="#878787"/>
<path d="M276.561 222.403C276.561 222.403 276.869 224.697 275.193 226.381C273.517 228.065 270.492 228.501 270.492 228.501C270.492 228.501 270.184 226.207 271.86 224.523C273.536 222.84 276.561 222.403 276.561 222.403Z" fill="white"/>
<path d="M286.619 232.974C286.619 232.974 286.927 235.268 285.251 236.951C283.575 238.635 280.55 239.071 280.55 239.071C280.55 239.071 280.242 236.777 281.918 235.093C283.593 233.41 286.619 232.974 286.619 232.974Z" fill="white"/>
<path d="M286.615 253.555C286.615 253.555 285.873 255.792 283.538 256.956C281.202 258.12 278.156 257.768 278.156 257.768C278.156 257.768 278.898 255.531 281.233 254.368C283.569 253.205 286.615 253.555 286.615 253.555Z" fill="white"/>
<path d="M231.377 253.555C231.377 253.555 232.118 255.792 234.454 256.956C236.79 258.12 239.835 257.768 239.835 257.768C239.835 257.768 239.093 255.531 236.757 254.368C234.423 253.205 231.377 253.555 231.377 253.555Z" fill="white"/>
<path d="M274.997 245.013C274.997 245.013 275.306 247.306 273.63 248.99C271.954 250.674 268.928 251.11 268.928 251.11C268.928 251.11 268.62 248.817 270.296 247.134C271.972 245.449 274.997 245.013 274.997 245.013Z" fill="white"/>
<path d="M272.392 210.904C272.392 210.904 272.7 213.197 271.024 214.881C269.348 216.565 266.323 217.001 266.323 217.001C266.323 217.001 266.014 214.708 267.689 213.025C269.366 211.34 272.392 210.904 272.392 210.904Z" fill="white"/>
<path d="M266.399 219.674C266.399 219.674 266.708 221.968 265.032 223.651C263.356 225.335 260.331 225.771 260.331 225.771C260.331 225.771 260.022 223.477 261.698 221.794C263.373 220.111 266.399 219.674 266.399 219.674Z" fill="white"/>
<path d="M280.626 213.289C280.626 213.289 280.934 215.583 279.258 217.266C277.582 218.95 274.557 219.387 274.557 219.387C274.557 219.387 274.248 217.093 275.924 215.409C277.6 213.725 280.626 213.289 280.626 213.289Z" fill="white"/>
<path d="M234.396 213.289C234.396 213.289 234.088 215.583 235.764 217.266C237.44 218.95 240.465 219.387 240.465 219.387C240.465 219.387 240.773 217.093 239.097 215.409C237.421 213.725 234.396 213.289 234.396 213.289Z" fill="white"/>
<path d="M273.695 200.184C273.695 200.184 274.003 202.478 272.327 204.161C270.651 205.845 267.626 206.282 267.626 206.282C267.626 206.282 267.318 203.988 268.994 202.304C270.669 200.62 273.695 200.184 273.695 200.184Z" fill="white"/>
<path d="M270.749 188.797C270.749 188.797 271.819 190.959 270.762 192.903C269.705 194.848 266.922 195.839 266.922 195.839C266.922 195.839 265.853 193.677 266.91 191.732C267.968 189.788 270.749 188.797 270.749 188.797Z" fill="white"/>
<path d="M249.647 185.822C249.647 185.822 252.377 186.891 253.333 188.865C254.29 190.838 253.111 192.967 253.111 192.967C253.111 192.967 250.381 191.898 249.425 189.924C248.469 187.951 249.647 185.822 249.647 185.822Z" fill="white"/>
<path d="M259.488 199.438C259.488 199.438 261.433 201.226 261.271 203.322C261.11 205.418 258.904 207.027 258.904 207.027C258.904 207.027 256.959 205.24 257.121 203.144C257.282 201.047 259.488 199.438 259.488 199.438Z" fill="white"/>
<path d="M258.966 179.168C258.966 179.168 260.911 180.956 260.75 183.051C260.588 185.147 258.383 186.757 258.383 186.757C258.383 186.757 256.438 184.968 256.6 182.873C256.761 180.778 258.966 179.168 258.966 179.168Z" fill="white"/>
<path d="M236.881 222.403C236.881 222.403 236.572 224.697 238.247 226.381C239.923 228.065 242.95 228.501 242.95 228.501C242.95 228.501 243.258 226.207 241.582 224.523C239.906 222.84 236.881 222.403 236.881 222.403Z" fill="white"/>
<path d="M231.148 234.877C231.148 234.877 230.84 237.171 232.516 238.855C234.192 240.539 237.217 240.975 237.217 240.975C237.217 240.975 237.525 238.681 235.849 236.998C234.174 235.314 231.148 234.877 231.148 234.877Z" fill="white"/>
<path d="M246.364 239.406C246.364 239.406 246.056 241.7 247.732 243.383C249.408 245.067 252.433 245.503 252.433 245.503C252.433 245.503 252.741 243.209 251.065 241.526C249.39 239.842 246.364 239.406 246.364 239.406Z" fill="white"/>
<path d="M250.525 222.122C250.525 222.122 249.351 224.252 250.312 226.225C251.274 228.197 254.006 229.263 254.006 229.263C254.006 229.263 255.179 227.132 254.218 225.16C253.257 223.188 250.525 222.122 250.525 222.122Z" fill="white"/>
<path d="M239.75 268.115C239.75 268.115 242.831 268.157 244.936 266.769C247.042 265.382 247.375 263.09 247.375 263.09C247.375 263.09 244.295 263.048 242.189 264.436C240.083 265.823 239.75 268.115 239.75 268.115Z" fill="white"/>
<path d="M269.313 265.593C269.313 265.593 270.15 267.811 272.535 268.918C274.918 270.025 277.948 269.601 277.948 269.601C277.948 269.601 277.111 267.382 274.726 266.276C272.342 265.17 269.313 265.593 269.313 265.593Z" fill="white"/>
<path d="M243.187 210.904C243.187 210.904 242.878 213.197 244.554 214.881C246.23 216.565 249.255 217.001 249.255 217.001C249.255 217.001 249.564 214.708 247.888 213.025C246.213 211.34 243.187 210.904 243.187 210.904Z" fill="white"/>
<path d="M243.134 200.769C243.134 200.769 242.825 203.062 244.501 204.746C246.177 206.43 249.202 206.866 249.202 206.866C249.202 206.866 249.511 204.572 247.835 202.889C246.16 201.205 243.134 200.769 243.134 200.769Z" fill="white"/>
<path d="M75.4786 328.072H64.0652L67.3753 161.295H72.1685L75.4786 328.072Z" fill="white" stroke="#263238" stroke-miterlimit="10"/>
<path d="M72.4371 174.842L72.1685 161.295H67.3753L67.1057 174.842H72.4371Z" fill="#263238" stroke="#263238" stroke-miterlimit="10"/>
<path d="M69.848 159.55C73.5731 159.55 76.5929 147.801 76.5929 133.307C76.5929 118.813 73.5731 107.063 69.848 107.063C66.1229 107.063 63.1031 118.813 63.1031 133.307C63.1031 147.801 66.1229 159.55 69.848 159.55Z" fill="#49B02D" stroke="#263238" stroke-miterlimit="10"/>
<path d="M131.074 186.293C132.903 183.866 120.704 176.128 103.826 169.01C86.9475 161.892 71.7821 158.09 69.9527 160.517C68.1233 162.944 80.3227 170.682 97.2009 177.8C114.079 184.918 129.245 188.721 131.074 186.293Z" fill="#49B02D" stroke="#263238" stroke-miterlimit="10"/>
<path d="M42.3415 177.798C59.22 170.68 71.4199 162.942 69.5906 160.515C67.7614 158.087 52.5957 161.89 35.7171 169.008C18.8386 176.126 6.63873 183.864 8.46794 186.291C10.2971 188.718 25.4629 184.915 42.3415 177.798Z" fill="#49B02D" stroke="#263238" stroke-miterlimit="10"/>
<path d="M76.8667 160.055C76.8667 157.021 73.579 154.562 69.5233 154.562C65.4676 154.562 62.1809 157.021 62.1809 160.055C62.1809 163.089 65.4686 165.548 69.5233 165.548C73.58 165.548 76.8667 163.089 76.8667 160.055Z" fill="white" stroke="#263238" stroke-miterlimit="10"/>
<path d="M169.022 328.072H154.98L159.052 122.901H164.95L169.022 328.072Z" fill="white" stroke="#263238" stroke-miterlimit="10"/>
<path d="M165.28 139.566L164.95 122.901H159.052L158.721 139.566H165.28Z" fill="#263238" stroke="#263238" stroke-miterlimit="10"/>
<path d="M162.095 120.754C166.677 120.754 170.392 106.299 170.392 88.4687C170.392 70.6381 166.677 56.1836 162.095 56.1836C157.512 56.1836 153.798 70.6381 153.798 88.4687C153.798 106.299 157.512 120.754 162.095 120.754Z" fill="#49B02D" stroke="#263238" stroke-miterlimit="10"/>
<path d="M237.418 153.654C239.668 150.668 224.66 141.149 203.896 132.392C183.132 123.635 164.476 118.957 162.225 121.943C159.975 124.929 174.983 134.449 195.746 143.205C216.51 151.962 235.167 156.64 237.418 153.654Z" fill="#49B02D" stroke="#263238" stroke-miterlimit="10"/>
<path d="M128.255 143.203C149.019 134.446 164.027 124.927 161.777 121.941C159.527 118.955 140.87 123.632 120.106 132.389C99.3411 141.145 84.3337 150.665 86.5837 153.65C88.8337 156.637 107.491 151.959 128.255 143.203Z" fill="#49B02D" stroke="#263238" stroke-miterlimit="10"/>
<path d="M161.696 128.133C166.685 128.133 170.729 125.108 170.729 121.376C170.729 117.644 166.685 114.618 161.696 114.618C156.706 114.618 152.662 117.644 152.662 121.376C152.662 125.108 156.706 128.133 161.696 128.133Z" fill="white" stroke="#263238" stroke-miterlimit="10"/>
<path d="M236.935 328.073H318.226V258.135H236.935V328.073Z" fill="white" stroke="#263238" stroke-miterlimit="10"/>
<path d="M214.672 328.073H262.385V258.135H214.672V328.073Z" fill="#CCCCCC" stroke="#263238" stroke-miterlimit="10"/>
<path d="M227.714 305.989H246.409V277.078H227.714V305.989Z" fill="white" stroke="#263238" stroke-miterlimit="10"/>
<path d="M222.595 305.989H233.568V277.078H222.595V305.989Z" fill="#CCCCCC" stroke="#263238" stroke-miterlimit="10"/>
<path d="M231.849 278.752H224.33" stroke="#263238" stroke-miterlimit="10"/>
<path d="M231.849 280.536H224.33" stroke="#263238" stroke-miterlimit="10"/>
<path d="M231.849 282.319H224.33" stroke="#263238" stroke-miterlimit="10"/>
<path d="M231.849 284.103H224.33" stroke="#263238" stroke-miterlimit="10"/>
<path d="M231.849 285.886H224.33" stroke="#263238" stroke-miterlimit="10"/>
<path d="M213.176 259.294H320.657V255.603H213.176V259.294Z" fill="#808080" stroke="#263238" stroke-miterlimit="10"/>
<path d="M264.98 255.603H213.178V259.294H264.98V255.603Z" fill="#454545" stroke="#263238" stroke-miterlimit="10"/>
<path d="M282.545 272.784H285.016V270.669H296.386V272.784H298.857C302.887 272.784 306.164 275.235 306.164 278.249V308.756C306.164 311.77 302.887 314.222 298.857 314.222H282.546C278.517 314.222 275.238 311.77 275.238 308.756V278.249C275.237 275.235 278.516 272.784 282.545 272.784ZM278.243 308.756C278.243 310.53 280.173 311.973 282.545 311.973H298.856C301.228 311.973 303.157 310.53 303.157 308.756V278.249C303.157 276.475 301.228 275.032 298.856 275.032H282.545C280.173 275.032 278.243 276.475 278.243 278.249V308.756Z" fill="#49B02D" fill-opacity="0.5"/>
<path d="M279.823 285.019H301.917V278.458H279.823V285.019Z" fill="#49B02D" fill-opacity="0.5"/>
<path d="M279.823 292.959H301.917V286.399H279.823V292.959Z" fill="#49B02D" fill-opacity="0.5"/>
<path d="M279.823 300.901H301.917V294.341H279.823V300.901Z" fill="#49B02D" fill-opacity="0.5"/>
<path d="M279.823 308.842H301.917V302.282H279.823V308.842Z" fill="#49B02D" fill-opacity="0.5"/>
<path d="M136.864 328.073H218.155V258.135H136.864V328.073Z" fill="white" stroke="#263238" stroke-miterlimit="10"/>
<path d="M114.601 328.073H162.315V258.135H114.601L114.601 328.073Z" fill="#CCCCCC" stroke="#263238" stroke-miterlimit="10"/>
<path d="M127.644 305.989H146.338V277.078H127.644V305.989Z" fill="white" stroke="#263238" stroke-miterlimit="10"/>
<path d="M122.525 305.989H133.497V277.078H122.525V305.989Z" fill="#CCCCCC" stroke="#263238" stroke-miterlimit="10"/>
<path d="M131.779 278.752H124.26" stroke="#263238" stroke-miterlimit="10"/>
<path d="M131.779 280.536H124.26" stroke="#263238" stroke-miterlimit="10"/>
<path d="M131.779 282.319H124.26" stroke="#263238" stroke-miterlimit="10"/>
<path d="M131.779 284.103H124.26" stroke="#263238" stroke-miterlimit="10"/>
<path d="M131.779 285.886H124.26" stroke="#263238" stroke-miterlimit="10"/>
<path d="M113.107 259.294H220.588V255.603H113.107V259.294Z" fill="#808080" stroke="#263238" stroke-miterlimit="10"/>
<path d="M164.909 255.603H113.107V259.294H164.909V255.603Z" fill="#454545" stroke="#263238" stroke-miterlimit="10"/>
<path d="M182.474 272.784H184.946V270.669H196.316V272.784H198.787C202.816 272.784 206.094 275.235 206.094 278.249V308.756C206.094 311.77 202.816 314.222 198.787 314.222H182.475C178.446 314.222 175.168 311.77 175.168 308.756V278.249C175.167 275.235 178.445 272.784 182.474 272.784ZM178.173 308.756C178.173 310.53 180.103 311.973 182.474 311.973H198.786C201.158 311.973 203.087 310.53 203.087 308.756V278.249C203.087 276.475 201.158 275.032 198.786 275.032H182.474C180.103 275.032 178.173 276.475 178.173 278.249V308.756Z" fill="#49B02D" fill-opacity="0.5"/>
<path d="M179.752 285.019H201.846V278.458H179.752V285.019Z" fill="#49B02D" fill-opacity="0.5"/>
<path d="M179.752 292.959H201.846V286.399H179.752V292.959Z" fill="#49B02D" fill-opacity="0.5"/>
<path d="M179.752 300.901H201.846V294.341H179.752V300.901Z" fill="#49B02D" fill-opacity="0.5"/>
<path d="M179.752 308.842H201.846V302.282H179.752V308.842Z" fill="#49B02D" fill-opacity="0.5"/>
<path d="M99.1204 327.775H99.6576C100.927 327.775 101.956 327.006 101.956 326.056V296.609C101.956 295.66 100.927 294.89 99.6576 294.89H99.1204C97.8509 294.89 96.8224 295.659 96.8224 296.609V326.056C96.8224 327.006 97.8509 327.775 99.1204 327.775Z" fill="#49B02D" fill-opacity="0.5" stroke="#263238" stroke-miterlimit="10"/>
<path d="M95.318 322.704H103.556C104.004 322.704 104.433 322.844 104.739 323.09L108.404 326.045C109.362 326.817 108.63 328.073 107.222 328.073H91.6524C90.244 328.073 89.5127 326.817 90.4697 326.045L94.1352 323.09C94.4416 322.844 94.8696 322.704 95.318 322.704Z" fill="#49B02D" fill-opacity="0.5" stroke="#263238" stroke-miterlimit="10"/>
<path d="M95.318 317.746H103.556C104.004 317.746 104.433 317.886 104.739 318.132L108.404 321.087C109.362 321.859 108.63 323.115 107.222 323.115H91.6524C90.244 323.115 89.5127 321.859 90.4697 321.087L94.1352 318.132C94.4416 317.886 94.8696 317.746 95.318 317.746Z" fill="#49B02D" fill-opacity="0.5" stroke="#263238" stroke-miterlimit="10"/>
<path d="M95.318 312.789H103.556C104.004 312.789 104.433 312.928 104.739 313.174L108.404 316.13C109.362 316.902 108.63 318.157 107.222 318.157H91.6524C90.244 318.157 89.5127 316.902 90.4697 316.13L94.1352 313.174C94.4416 312.928 94.8696 312.789 95.318 312.789Z" fill="#49B02D" fill-opacity="0.5" stroke="#263238" stroke-miterlimit="10"/>
<path d="M95.318 307.83H103.556C104.004 307.83 104.433 307.97 104.739 308.216L108.404 311.171C109.362 311.943 108.63 313.199 107.222 313.199H91.6524C90.244 313.199 89.5127 311.943 90.4697 311.171L94.1352 308.216C94.4416 307.97 94.8696 307.83 95.318 307.83Z" fill="#49B02D" fill-opacity="0.5" stroke="#263238" stroke-miterlimit="10"/>
<path d="M95.318 302.872H103.556C104.004 302.872 104.433 303.011 104.739 303.257L108.404 306.213C109.362 306.985 108.63 308.24 107.222 308.24H91.6524C90.244 308.24 89.5127 306.985 90.4697 306.213L94.1352 303.257C94.4416 303.011 94.8696 302.872 95.318 302.872Z" fill="#49B02D" fill-opacity="0.5" stroke="#263238" stroke-miterlimit="10"/>
<path d="M95.318 297.914H103.556C104.004 297.914 104.433 298.054 104.739 298.3L108.404 301.255C109.362 302.027 108.63 303.283 107.222 303.283H91.6524C90.244 303.283 89.5127 302.027 90.4697 301.255L94.1352 298.3C94.4416 298.054 94.8696 297.914 95.318 297.914Z" fill="#49B02D" fill-opacity="0.5" stroke="#263238" stroke-miterlimit="10"/>
<path d="M155.815 327.775H156.352C157.62 327.775 158.65 327.006 158.65 326.056V296.609C158.65 295.66 157.621 294.89 156.352 294.89H155.815C154.546 294.89 153.517 295.659 153.517 296.609V326.056C153.517 327.006 154.545 327.775 155.815 327.775Z" fill="#49B02D" fill-opacity="0.5" stroke="#263238" stroke-miterlimit="10"/>
<path d="M152.012 322.704H160.25C160.699 322.704 161.128 322.844 161.433 323.09L165.1 326.045C166.058 326.817 165.325 328.073 163.917 328.073H148.347C146.938 328.073 146.207 326.817 147.164 326.045L150.829 323.09C151.136 322.844 151.564 322.704 152.012 322.704Z" fill="#49B02D" fill-opacity="0.5" stroke="#263238" stroke-miterlimit="10"/>
<path d="M152.012 317.746H160.25C160.699 317.746 161.128 317.886 161.433 318.132L165.1 321.087C166.058 321.859 165.325 323.115 163.917 323.115H148.347C146.938 323.115 146.207 321.859 147.164 321.087L150.829 318.132C151.136 317.886 151.564 317.746 152.012 317.746Z" fill="#49B02D" fill-opacity="0.5" stroke="#263238" stroke-miterlimit="10"/>
<path d="M152.012 312.789H160.25C160.699 312.789 161.128 312.928 161.433 313.174L165.1 316.13C166.058 316.902 165.325 318.157 163.917 318.157H148.347C146.938 318.157 146.207 316.902 147.164 316.13L150.829 313.174C151.136 312.928 151.564 312.789 152.012 312.789Z" fill="#49B02D" fill-opacity="0.5" stroke="#263238" stroke-miterlimit="10"/>
<path d="M152.012 307.83H160.25C160.699 307.83 161.128 307.97 161.433 308.216L165.1 311.171C166.058 311.943 165.325 313.199 163.917 313.199H148.347C146.938 313.199 146.207 311.943 147.164 311.171L150.829 308.216C151.136 307.97 151.564 307.83 152.012 307.83Z" fill="#49B02D" fill-opacity="0.5" stroke="#263238" stroke-miterlimit="10"/>
<path d="M152.012 302.872H160.25C160.699 302.872 161.128 303.011 161.433 303.257L165.1 306.213C166.058 306.985 165.325 308.24 163.917 308.24H148.347C146.938 308.24 146.207 306.985 147.164 306.213L150.829 303.257C151.136 303.011 151.564 302.872 152.012 302.872Z" fill="#49B02D" fill-opacity="0.5" stroke="#263238" stroke-miterlimit="10"/>
<path d="M152.012 297.914H160.25C160.699 297.914 161.128 298.054 161.433 298.3L165.1 301.255C166.058 302.027 165.325 303.283 163.917 303.283H148.347C146.938 303.283 146.207 302.027 147.164 301.255L150.829 298.3C151.136 298.054 151.564 297.914 152.012 297.914Z" fill="#49B02D" fill-opacity="0.5" stroke="#263238" stroke-miterlimit="10"/>
<path d="M335.466 327.775H336.003C337.272 327.775 338.301 327.006 338.301 326.056V296.609C338.301 295.66 337.273 294.89 336.003 294.89H335.466C334.197 294.89 333.168 295.659 333.168 296.609V326.056C333.168 327.006 334.196 327.775 335.466 327.775Z" fill="#49B02D" fill-opacity="0.5" stroke="#263238" stroke-miterlimit="10"/>
<path d="M331.664 322.704H339.902C340.35 322.704 340.779 322.844 341.084 323.09L344.75 326.045C345.708 326.817 344.976 328.073 343.567 328.073H327.998C326.59 328.073 325.857 326.817 326.815 326.045L330.481 323.09C330.787 322.844 331.215 322.704 331.664 322.704Z" fill="#49B02D" fill-opacity="0.5" stroke="#263238" stroke-miterlimit="10"/>
<path d="M331.664 317.746H339.902C340.35 317.746 340.779 317.886 341.084 318.132L344.75 321.087C345.708 321.859 344.976 323.115 343.567 323.115H327.998C326.59 323.115 325.857 321.859 326.815 321.087L330.481 318.132C330.787 317.886 331.215 317.746 331.664 317.746Z" fill="#49B02D" fill-opacity="0.5" stroke="#263238" stroke-miterlimit="10"/>
<path d="M331.664 312.789H339.902C340.35 312.789 340.779 312.928 341.084 313.174L344.75 316.13C345.708 316.902 344.976 318.157 343.567 318.157H327.998C326.59 318.157 325.857 316.902 326.815 316.13L330.481 313.174C330.787 312.928 331.215 312.789 331.664 312.789Z" fill="#49B02D" fill-opacity="0.5" stroke="#263238" stroke-miterlimit="10"/>
<path d="M331.664 307.83H339.902C340.35 307.83 340.779 307.97 341.084 308.216L344.75 311.171C345.708 311.943 344.976 313.199 343.567 313.199H327.998C326.59 313.199 325.857 311.943 326.815 311.171L330.481 308.216C330.787 307.97 331.215 307.83 331.664 307.83Z" fill="#49B02D" fill-opacity="0.5" stroke="#263238" stroke-miterlimit="10"/>
<path d="M331.664 302.872H339.902C340.35 302.872 340.779 303.011 341.084 303.257L344.75 306.213C345.708 306.985 344.976 308.24 343.567 308.24H327.998C326.59 308.24 325.857 306.985 326.815 306.213L330.481 303.257C330.787 303.011 331.215 302.872 331.664 302.872Z" fill="#49B02D" fill-opacity="0.5" stroke="#263238" stroke-miterlimit="10"/>
<path d="M331.664 297.914H339.902C340.35 297.914 340.779 298.054 341.084 298.3L344.75 301.255C345.708 302.027 344.976 303.283 343.567 303.283H327.998C326.59 303.283 325.857 302.027 326.815 301.255L330.481 298.3C330.787 298.054 331.215 297.914 331.664 297.914Z" fill="#49B02D" fill-opacity="0.5" stroke="#263238" stroke-miterlimit="10"/>
<path d="M463.503 328.004H599.039V219.366H463.503V328.004Z" fill="white" stroke="#263238" stroke-miterlimit="10"/>
<path d="M384.407 212.793L429.076 169.098L465.137 212.793V328.004H384.407V212.793Z" fill="white" stroke="#263238" stroke-miterlimit="10"/>
<path d="M435.858 163.049L385.083 235.055H368.151L418.926 163.049H435.858Z" fill="#263238" stroke="#263238" stroke-miterlimit="10"/>
<path d="M420.382 163.049H562.91L613.685 235.055H471.157L420.382 163.049Z" fill="#263238" stroke="#263238" stroke-miterlimit="10"/>
<path d="M411.257 328.072H443.144V270.24H411.257V328.072Z" fill="white" stroke="#263238" stroke-miterlimit="10"/>
<path d="M479.9 252.833V240.544H511.787V275.924H479.9V258.096" fill="white"/>
<path d="M479.9 252.833V240.544H511.787V275.924H479.9V258.096" stroke="#263238" stroke-miterlimit="10"/>
<path d="M482.657 272.866H509.03V243.604H482.657V272.866Z" fill="white" stroke="#263238" stroke-miterlimit="10"/>
<path d="M494.275 272.866H497.414V243.604H494.275V272.866Z" fill="white" stroke="#263238" stroke-miterlimit="10"/>
<path d="M424.769 239.326H412.337V203.946H444.223V239.326H430.046" fill="white"/>
<path d="M424.769 239.326H412.337V203.946H444.223V239.326H430.046" stroke="#263238" stroke-miterlimit="10"/>
<path d="M415.093 236.267H441.466V207.005H415.093V236.267Z" fill="white" stroke="#263238" stroke-miterlimit="10"/>
<path d="M426.711 236.267H429.85V207.005H426.711V236.267Z" fill="white" stroke="#263238" stroke-miterlimit="10"/>
<path d="M479.901 317.402H511.788V282.022H479.901V317.402Z" fill="white" stroke="#263238" stroke-miterlimit="10"/>
<path d="M482.657 314.344H509.03V285.082H482.657V314.344Z" fill="white" stroke="#263238" stroke-miterlimit="10"/>
<path d="M494.275 314.344H497.413V285.082H494.275V314.344Z" fill="white" stroke="#263238" stroke-miterlimit="10"/>
<path d="M549.328 275.924H581.215V240.544H549.328V275.924Z" fill="white" stroke="#263238" stroke-miterlimit="10"/>
<path d="M552.086 272.866H578.458V243.604H552.086V272.866Z" fill="white" stroke="#263238" stroke-miterlimit="10"/>
<path d="M563.703 249.412V243.603H566.841V272.866H563.703V253.097" fill="white"/>
<path d="M563.703 249.412V243.603H566.841V272.866H563.703V253.097" stroke="#263238" stroke-miterlimit="10"/>
<path d="M549.328 317.402H581.215V282.022H549.328V317.402Z" fill="white" stroke="#263238" stroke-miterlimit="10"/>
<path d="M552.086 314.344H578.458V285.082H552.086V314.344Z" fill="white" stroke="#263238" stroke-miterlimit="10"/>
<path d="M563.702 314.344H566.841V285.082H563.702V314.344Z" fill="white" stroke="#263238" stroke-miterlimit="10"/>
<path d="M436.907 167.748H494.193L514.601 196.689H457.314L436.907 167.748Z" fill="white" stroke="#263238" stroke-miterlimit="10"/>
<path d="M441.055 169.293H492.224L510.453 195.144H459.284L441.055 169.293Z" fill="#49B02D" fill-opacity="0.5" stroke="#263238" stroke-miterlimit="10"/>
<path d="M450.151 169.293L468.38 195.144" stroke="#263238" stroke-miterlimit="10"/>
<path d="M460.923 169.293L479.152 195.144" stroke="#263238" stroke-miterlimit="10"/>
<path d="M471.695 169.293L489.924 195.144" stroke="#263238" stroke-miterlimit="10"/>
<path d="M482.466 169.293L500.696 195.144" stroke="#263238" stroke-miterlimit="10"/>
<path d="M495.999 174.552H445.012" stroke="#263238" stroke-miterlimit="10"/>
<path d="M500.309 180.998H449.322" stroke="#263238" stroke-miterlimit="10"/>
<path d="M504.617 187.445H453.631" stroke="#263238" stroke-miterlimit="10"/>
<path d="M457.282 196.779H514.567L534.976 225.72H477.69L457.282 196.779Z" fill="white" stroke="#263238" stroke-miterlimit="10"/>
<path d="M461.429 198.324H512.599L530.828 224.176H479.659L461.429 198.324Z" fill="#49B02D" fill-opacity="0.5" stroke="#263238" stroke-miterlimit="10"/>
<path d="M470.525 198.324L488.755 224.176" stroke="#263238" stroke-miterlimit="10"/>
<path d="M481.297 198.324L499.527 224.176" stroke="#263238" stroke-miterlimit="10"/>
<path d="M492.069 198.324L510.298 224.176" stroke="#263238" stroke-miterlimit="10"/>
<path d="M502.841 198.324L521.07 224.176" stroke="#263238" stroke-miterlimit="10"/>
<path d="M516.374 203.583H465.388" stroke="#263238" stroke-miterlimit="10"/>
<path d="M520.683 210.029H469.697" stroke="#263238" stroke-miterlimit="10"/>
<path d="M524.992 216.476H474.005" stroke="#263238" stroke-miterlimit="10"/>
<path d="M501.686 167.748H558.972L579.38 196.689H522.094L501.686 167.748Z" fill="white" stroke="#263238" stroke-miterlimit="10"/>
<path d="M505.834 169.293H557.003L575.232 195.144H524.063L505.834 169.293Z" fill="#49B02D" fill-opacity="0.5" stroke="#263238" stroke-miterlimit="10"/>
<path d="M514.93 169.293L533.158 195.144" stroke="#263238" stroke-miterlimit="10"/>
<path d="M525.702 169.293L543.93 195.144" stroke="#263238" stroke-miterlimit="10"/>
<path d="M536.474 169.293L554.702 195.144" stroke="#263238" stroke-miterlimit="10"/>
<path d="M547.246 169.293L565.474 195.144" stroke="#263238" stroke-miterlimit="10"/>
<path d="M560.778 174.552H509.791" stroke="#263238" stroke-miterlimit="10"/>
<path d="M565.087 180.998H514.1" stroke="#263238" stroke-miterlimit="10"/>
<path d="M569.395 187.445H518.409" stroke="#263238" stroke-miterlimit="10"/>
<path d="M522.061 196.779H579.346L599.754 225.72H542.469L522.061 196.779Z" fill="white" stroke="#263238" stroke-miterlimit="10"/>
<path d="M526.208 198.324H577.378L595.607 224.176H544.438L526.208 198.324Z" fill="#49B02D" fill-opacity="0.5" stroke="#263238" stroke-miterlimit="10"/>
<path d="M535.305 198.324L553.534 224.176" stroke="#263238" stroke-miterlimit="10"/>
<path d="M546.076 198.324L564.306 224.176" stroke="#263238" stroke-miterlimit="10"/>
<path d="M556.848 198.324L575.077 224.176" stroke="#263238" stroke-miterlimit="10"/>
<path d="M567.62 198.324L585.849 224.176" stroke="#263238" stroke-miterlimit="10"/>
<path d="M581.153 203.583H530.167" stroke="#263238" stroke-miterlimit="10"/>
<path d="M585.462 210.029H534.476" stroke="#263238" stroke-miterlimit="10"/>
<path d="M589.771 216.476H538.785" stroke="#263238" stroke-miterlimit="10"/>
<path d="M358.415 327.729H365.27V299.697H358.415V327.729Z" fill="#263238" stroke="#263238" stroke-miterlimit="10"/>
<path d="M431.533 327.729H438.388V299.697H431.533V327.729Z" fill="#263238" stroke="#263238" stroke-miterlimit="10"/>
<path d="M341.963 275.375H436.974L470.822 323.376H375.811L341.963 275.375Z" fill="white" stroke="#263238" stroke-miterlimit="10"/>
<path d="M348.843 277.938H433.709L463.943 320.814H379.076L348.843 277.938Z" fill="#49B02D" fill-opacity="0.5" stroke="#263238" stroke-miterlimit="10"/>
<path d="M363.929 277.938L394.162 320.814" stroke="#263238" stroke-miterlimit="10"/>
<path d="M381.794 277.938L412.028 320.814" stroke="#263238" stroke-miterlimit="10"/>
<path d="M399.66 277.938L429.894 320.814" stroke="#263238" stroke-miterlimit="10"/>
<path d="M417.525 277.938L447.76 320.814" stroke="#263238" stroke-miterlimit="10"/>
<path d="M439.971 286.661H355.408" stroke="#263238" stroke-miterlimit="10"/>
<path d="M447.117 297.352H362.553" stroke="#263238" stroke-miterlimit="10"/>
<path d="M454.264 308.043H369.7" stroke="#263238" stroke-miterlimit="10"/>
<path d="M650.396 297.37H632.753V320.218H650.396V297.37Z" fill="#263238" stroke="#263238" stroke-miterlimit="10"/>
<path d="M624.068 303.76H617.085C613.703 303.76 610.96 309.202 610.96 315.917C610.96 322.631 613.703 328.073 617.085 328.073H624.068C627.451 328.073 630.193 322.631 630.193 315.917C630.193 309.202 627.451 303.76 624.068 303.76Z" fill="#263238" stroke="#263238" stroke-miterlimit="10"/>
<path d="M630.984 302.092C626.977 302.092 623.729 307.908 623.729 315.082C623.729 322.256 626.977 328.072 630.984 328.072H639.255V302.092H630.984Z" fill="#263238" stroke="#263238" stroke-miterlimit="10"/>
<path d="M639.254 328.072C643.261 328.072 646.509 322.256 646.509 315.082C646.509 307.908 643.261 302.092 639.254 302.092C635.248 302.092 632 307.908 632 315.082C632 322.256 635.248 328.072 639.254 328.072Z" fill="#707070" stroke="#263238" stroke-miterlimit="10"/>
<path d="M639.255 324.083C642.031 324.083 644.282 320.053 644.282 315.082C644.282 310.111 642.031 306.082 639.255 306.082C636.478 306.082 634.228 310.111 634.228 315.082C634.228 320.053 636.478 324.083 639.255 324.083Z" fill="white" stroke="#263238" stroke-miterlimit="10"/>
<path d="M695.737 317.379C697.555 315.339 698.488 313.373 698.963 311.739V305.734C697.578 301.828 692.772 298.922 689.585 297.369H681.319V320.217H694.801C694.678 319.249 694.928 318.287 695.737 317.379Z" fill="#263238" stroke="#263238" stroke-miterlimit="10"/>
<path d="M684.411 303.76C681.028 303.76 678.286 309.202 678.286 315.917C678.286 322.631 681.028 328.073 684.411 328.073H691.393V303.761H684.411V303.76Z" fill="#263238" stroke="#263238" stroke-miterlimit="10"/>
<path d="M691.393 328.073C694.776 328.073 697.518 322.631 697.518 315.917C697.518 309.203 694.776 303.76 691.393 303.76C688.011 303.76 685.269 309.203 685.269 315.917C685.269 322.631 688.011 328.073 691.393 328.073Z" fill="#707070" stroke="#263238" stroke-miterlimit="10"/>
<path d="M691.394 324.34C693.738 324.34 695.638 320.569 695.638 315.917C695.638 311.265 693.738 307.494 691.394 307.494C689.049 307.494 687.149 311.265 687.149 315.917C687.149 320.569 689.049 324.34 691.394 324.34Z" fill="white" stroke="#263238" stroke-miterlimit="10"/>
<path d="M565.255 302.092H556.984C552.977 302.092 549.729 307.908 549.729 315.082C549.729 322.256 552.977 328.072 556.984 328.072H565.255C569.261 328.072 572.509 322.256 572.509 315.082C572.509 307.908 569.261 302.092 565.255 302.092Z" fill="#263238" stroke="#263238" stroke-miterlimit="10"/>
<path d="M697.254 299.61C695.203 295.599 694.73 293.003 691.734 290.29C688.737 287.576 687.633 286.396 687.633 286.396C687.633 286.396 681.483 277.43 679.116 275.897C676.751 274.363 666.341 271.65 658.14 270.469C649.939 269.29 624.231 268.346 603.097 271.177C603.097 271.177 594.896 271.767 587.168 275.307C579.439 278.846 567.926 286.751 564.93 287.93C561.933 289.11 560.357 288.048 557.044 290.88C553.732 293.712 551.051 297.015 551.051 297.015C551.051 297.015 545.846 301.498 545.215 303.858C544.584 306.218 544.427 309.05 544.742 311.291C545.058 313.533 547.582 319.785 548.843 320.966C550.104 322.145 552.973 322.515 555.654 322.279C558.335 322.043 570.45 321.674 583.698 321.438C596.946 321.202 607.514 321.792 610.037 322.028C612.561 322.264 619.815 322.381 622.182 322.145C624.547 321.909 625.651 322.145 627.86 320.14C630.068 318.134 630.54 316.247 630.698 315.185C630.855 314.123 632.59 301.145 638.426 299.375C644.262 297.606 646.943 303.976 648.047 308.105C649.151 312.235 646.628 319.077 645.996 319.785C645.365 320.494 645.839 320.729 647.258 320.847C648.677 320.965 681.797 320.847 681.797 320.847C681.797 320.847 684.321 319.432 684.794 317.19C685.267 314.949 688.422 304.92 691.103 302.915C693.784 300.909 697.254 302.207 698.2 305.982C698.734 308.113 698.564 310.131 698.146 311.76C697.975 312.424 697.763 313.021 697.54 313.537C697.533 314.003 697.528 314.505 697.524 315.03C698.306 314.465 699.441 313.019 699.619 310.82C699.935 306.924 699.304 303.621 697.254 299.61Z" fill="#49B02D" fill-opacity="0.5" stroke="#263238" stroke-miterlimit="10"/>
<path d="M646.311 272.002C646.311 272.002 639.845 280.143 637.794 282.148C635.744 284.154 630.381 285.806 618.553 286.749C606.724 287.693 586.695 288.401 580.543 287.811C574.393 287.221 571.869 286.513 571.869 286.513C571.869 286.513 583.224 277.428 588.587 274.833C593.949 272.239 635.113 270.469 646.311 272.002Z" fill="#C2C2C2" stroke="#263238" stroke-miterlimit="10"/>
<path d="M659.875 272.356C659.875 272.356 653.725 271.412 650.413 273.418C647.1 275.423 640.476 285.805 640.634 286.986C640.793 288.165 640.793 288.402 644.419 288.519C648.047 288.637 667.761 288.165 672.493 286.867C677.225 285.569 678.959 284.744 679.747 282.62C680.536 280.497 679.59 277.429 678.486 276.839C677.381 276.249 659.875 272.356 659.875 272.356Z" fill="#8C8C8C" stroke="#263238" stroke-miterlimit="10"/>
<path d="M666.657 273.89C665.662 273.662 664.709 273.445 663.848 273.25C664.528 274.223 666.746 278.136 666.831 287.67C667.631 287.599 668.384 287.522 669.079 287.441C668.99 280.139 667.674 276.004 666.657 273.89Z" fill="#263238"/>
<path d="M671.073 292.413C671.073 292.413 665.237 292.413 664.922 293.238C664.606 294.064 666.814 293.947 668.391 293.947C669.968 293.947 672.492 293.475 671.073 292.413Z" fill="#263238" stroke="#263238" stroke-miterlimit="10"/>
<path d="M686.946 291.33C686.946 291.33 683.292 291.33 683.095 291.976C682.898 292.623 684.28 292.53 685.268 292.53C686.254 292.531 687.834 292.161 686.946 291.33Z" fill="#263238" stroke="#263238" stroke-miterlimit="10"/>
<path d="M632.116 290.525C632.116 290.525 623.442 295.126 621.234 295.834C619.026 296.542 602.782 299.609 601.835 299.019C600.888 298.429 607.513 290.996 613.821 289.109C620.13 287.221 624.546 286.985 628.804 287.104C633.063 287.222 633.536 287.929 632.116 290.525Z" fill="white" stroke="#263238" stroke-miterlimit="10"/>
<path d="M557.043 290.879C553.731 293.711 551.05 297.014 551.05 297.014C551.366 297.604 556.096 299.845 557.359 299.845C558.62 299.845 558.306 297.604 559.724 294.655C561.144 291.705 564.929 287.93 564.929 287.93C561.932 289.109 560.355 288.048 557.043 290.879Z" fill="white" stroke="#263238" stroke-miterlimit="10"/>
<path d="M557.669 306.806C555.898 307.205 554.403 308.109 553.505 309.318C552.765 310.316 552.073 311.459 552.313 311.997C552.786 313.059 554.522 315.065 555.626 315.301C556.73 315.537 587.168 317.66 601.048 314.239C601.048 314.239 596.475 308.222 594.897 307.278C593.32 306.334 590.323 305.98 589.692 305.98C589.061 305.98 561.146 306.098 558.779 306.57C558.381 306.65 558.01 306.729 557.669 306.806Z" fill="#8C8C8C" stroke="#263238" stroke-miterlimit="10"/>
<path d="M601.046 314.239C601.046 314.239 600.429 313.425 599.569 312.351H552.497C553.136 313.452 554.633 315.088 555.624 315.301C556.729 315.537 587.168 317.661 601.046 314.239Z" fill="#263238" stroke="#263238" stroke-miterlimit="10"/>
<path d="M587.326 307.396H560.829V311.88H587.326V307.396Z" fill="white" stroke="#263238" stroke-miterlimit="10"/>
<path d="M614.137 314.24C615.705 314.24 616.976 313.289 616.976 312.116C616.976 310.943 615.705 309.992 614.137 309.992C612.569 309.992 611.298 310.943 611.298 312.116C611.298 313.289 612.569 314.24 614.137 314.24Z" fill="white" stroke="#263238" stroke-miterlimit="10"/>
<path d="M547.896 314.24C549.464 314.24 550.735 313.289 550.735 312.116C550.735 310.943 549.464 309.992 547.896 309.992C546.328 309.992 545.057 310.943 545.057 312.116C545.057 313.289 546.328 314.24 547.896 314.24Z" fill="white" stroke="#263238" stroke-miterlimit="10"/>
<path d="M587.433 295.371C587.433 295.371 571.727 295.121 569.834 295.454C567.94 295.788 567.16 296.704 567.272 298.121C567.383 299.537 568.051 301.787 569.277 302.037C570.503 302.287 580.304 302.12 581.864 301.621C583.423 301.121 587.991 298.954 588.659 297.455C589.328 295.954 589.104 295.371 587.433 295.371Z" stroke="#263238" stroke-width="0.75" stroke-miterlimit="10"/>
<path d="M588.547 296.037L604.365 294.621" stroke="#263238" stroke-width="0.75" stroke-miterlimit="10"/>
<path d="M567.606 296.538L560.142 295.538" stroke="#263238" stroke-miterlimit="10"/>
<path d="M619.505 318.908C619.505 318.908 621.36 317.818 621.095 314.746C620.831 311.674 619.77 302.459 622.553 298.99C624.882 296.085 632.325 292.832 639.662 291.62" stroke="#263238" stroke-width="0.75" stroke-miterlimit="10"/>
<path d="M649.974 316.728C649.974 316.728 678.721 316.034 680.443 315.638C682.165 315.241 683.489 314.151 684.55 312.07C685.61 309.989 687.199 303.152 688.259 301.368C689.319 299.584 689.981 299.189 689.981 299.189C689.981 299.189 690.908 293.243 688.524 289.675" stroke="#263238" stroke-width="0.75" stroke-miterlimit="10"/>
<path d="M672.229 294.927C672.229 294.927 675.939 307.413 669.977 316.034" stroke="#263238" stroke-width="0.75" stroke-miterlimit="10"/>
<path d="M647.987 291.855C647.987 291.855 652.756 300.675 650.504 310.286" stroke="#263238" stroke-width="0.75" stroke-miterlimit="10"/>
<path d="M604.536 319.701C603.079 319.701 600.562 319.8 598.177 318.908C595.793 318.016 561.35 318.808 559.628 318.808C558.264 318.808 551.331 320.052 548.509 320.569C548.626 320.727 548.74 320.867 548.843 320.964C550.104 322.143 552.973 322.513 555.654 322.277C558.335 322.041 570.45 321.672 583.698 321.436C596.946 321.2 607.514 321.789 610.037 322.026C612.561 322.262 619.815 322.379 622.182 322.143C624.547 321.907 625.651 322.143 627.86 320.138C625.216 319.585 605.994 319.701 604.536 319.701Z" fill="#263238" stroke="#263238" stroke-miterlimit="10"/>
<path d="M690.155 300.736C691.181 300.736 692.012 299.249 692.012 297.416C692.012 295.582 691.181 294.095 690.155 294.095C689.129 294.095 688.297 295.582 688.297 297.416C688.297 299.249 689.129 300.736 690.155 300.736Z" fill="#263238" stroke="#263238" stroke-miterlimit="10"/>
<path d="M720.587 276.219H709.136V327.205H720.587V276.219Z" fill="#263238" stroke="#263238" stroke-miterlimit="10"/>
<path d="M724.51 272.673H705.109V298.875H724.51V272.673Z" fill="white" stroke="#263238" stroke-miterlimit="10"/>
<path d="M690.155 297.415H695.756C698.82 297.415 701.304 299.273 701.304 301.565V324.783C701.304 326.6 703.273 328.072 705.701 328.072H729.23C731.595 328.072 733.512 326.638 733.512 324.869V290.238C733.512 288.359 731.476 286.835 728.963 286.835H724.015" stroke="#263238" stroke-width="2" stroke-miterlimit="10"/>
<path d="M728.144 285.292H724.428V288.689H728.144V285.292Z" fill="#263238" stroke="#263238" stroke-miterlimit="10"/>
<path d="M721.012 283.089C721.012 280.392 718.09 278.206 714.485 278.206C710.88 278.206 707.958 280.392 707.958 283.089C707.958 285.786 710.88 287.971 714.485 287.971C718.09 287.971 721.012 285.786 721.012 283.089Z" fill="#49B02D" fill-opacity="0.5" stroke="#263238" stroke-miterlimit="10"/>
<path d="M712.47 275.651L709.303 281.485H713.103L710.728 286.284H713.816L712.751 291.863L719.518 283.796H716.41L719.043 278.997H715.154L716.817 275.62L712.47 275.651Z" fill="white" stroke="#263238" stroke-miterlimit="10"/>
<path d="M25.8346 328.072H757.315" stroke="#263238" stroke-miterlimit="10"/>
</svg>